<svg xmlns="http://www.w3.org/2000/svg" viewBox="0 0 340 280"><defs><radialGradient id="s" cx="32%" cy="22%" r="83%"><stop stop-color="#e2d8ff"/><stop offset=".46" stop-color="#aca0cc"/><stop offset=".86" stop-color="#65587d"/><stop offset="1" stop-color="#343e3d"/></radialGradient><filter id="shadow" x="-30%" y="-30%" width="160%" height="180%"><feGaussianBlur stdDeviation="8"/></filter><filter id="grain"><feTurbulence type="fractalNoise" baseFrequency=".18" numOctaves="4" stitchTiles="stitch"/><feColorMatrix type="saturate" values="0"/><feComponentTransfer><feFuncA type="linear" slope=".28"/></feComponentTransfer><feComposite in2="SourceGraphic" operator="in"/><feBlend in="SourceGraphic" mode="soft-light"/></filter><linearGradient id="bevel" x1=".2" y1="0" x2=".8" y2="1"><stop stop-color="#fff" stop-opacity=".14"/><stop offset=".38" stop-color="#fff" stop-opacity="0"/><stop offset=".74" stop-color="#13232b" stop-opacity=".02"/><stop offset="1" stop-color="#13232b" stop-opacity=".4"/></linearGradient><filter id="paint" x="-20%" y="-20%" width="140%" height="140%"><feDropShadow dx="0" dy="1" stdDeviation=".8" flood-color="#17252c" flood-opacity=".35"/></filter><clipPath id="stone-clip"><path d="M81 177C68 142 76 97 108 71c31-25 78-28 113-8 37 20 59 64 46 108-12 39-46 63-89 65-43 2-81-18-97-59Z"/></clipPath><filter id="weathered" x="-10%" y="-10%" width="120%" height="120%"><feTurbulence type="fractalNoise" baseFrequency=".09" numOctaves="2" seed="27" result="rough"/><feDisplacementMap in="SourceGraphic" in2="rough" scale="1.8" xChannelSelector="R" yChannelSelector="G"/></filter></defs><ellipse cx="171" cy="236" rx="90" ry="13" opacity=".32" fill="#0b171b" filter="url(#shadow)"/><g filter="url(#weathered)"><path d="M81 177C68 142 76 97 108 71c31-25 78-28 113-8 37 20 59 64 46 108-12 39-46 63-89 65-43 2-81-18-97-59Z" fill="url(#s)" stroke="#243031" stroke-opacity=".35" stroke-width="2" filter="url(#grain)"/><path d="M81 177C68 142 76 97 108 71c31-25 78-28 113-8 37 20 59 64 46 108-12 39-46 63-89 65-43 2-81-18-97-59Z" fill="url(#bevel)"/><path d="M91 119c13-31 37-48 70-50" fill="none" stroke="#dedbe9" stroke-width="2.5" stroke-linecap="round" opacity=".34"/></g><g clip-path="url(#stone-clip)"><circle cx="250.4" cy="219.2" r="0.57" fill="#26352f" opacity="0.09"/><path d="m249.8 218.7h0.6" stroke="#f7f1db" stroke-width=".6" opacity=".2"/><circle cx="229.5" cy="183.6" r="1.27" fill="#26352f" opacity="0.12"/><path d="m228.3 182.4h1.3" stroke="#f7f1db" stroke-width=".6" opacity=".2"/><circle cx="189.8" cy="161.9" r="1.17" fill="#26352f" opacity="0.10"/><path d="m188.7 160.8h1.2" stroke="#f7f1db" stroke-width=".6" opacity=".2"/><circle cx="159.5" cy="126.1" r="1.33" fill="#26352f" opacity="0.20"/><path d="m158.2 124.8h1.3" stroke="#f7f1db" stroke-width=".6" opacity=".2"/><circle cx="249.2" cy="151.4" r="1.01" fill="#26352f" opacity="0.11"/><path d="m248.2 150.4h1.0" stroke="#f7f1db" stroke-width=".6" opacity=".2"/><circle cx="91.2" cy="64.6" r="1.03" fill="#26352f" opacity="0.12"/><path d="m90.2 63.6h1.0" stroke="#f7f1db" stroke-width=".6" opacity=".2"/><circle cx="150.7" cy="209.8" r="1.10" fill="#26352f" opacity="0.15"/><path d="m149.6 208.7h1.1" stroke="#f7f1db" stroke-width=".6" opacity=".2"/><circle cx="125.8" cy="64.0" r="0.87" fill="#26352f" opacity="0.10"/><path d="m125.0 63.1h0.9" stroke="#f7f1db" stroke-width=".6" opacity=".2"/><circle cx="173.3" cy="227.8" r="1.28" fill="#26352f" opacity="0.10"/><path d="m172.0 226.5h1.3" stroke="#f7f1db" stroke-width=".6" opacity=".2"/><circle cx="239.6" cy="193.9" r="1.34" fill="#26352f" opacity="0.19"/><path d="m238.2 192.5h1.3" stroke="#f7f1db" stroke-width=".6" opacity=".2"/><circle cx="217.0" cy="192.7" r="0.91" fill="#26352f" opacity="0.20"/><path d="m216.1 191.8h0.9" stroke="#f7f1db" stroke-width=".6" opacity=".2"/><circle cx="251.4" cy="87.1" r="1.37" fill="#26352f" opacity="0.17"/><path d="m250.0 85.7h1.4" stroke="#f7f1db" stroke-width=".6" opacity=".2"/><circle cx="164.8" cy="149.1" r="1.06" fill="#26352f" opacity="0.19"/><path d="m163.8 148.0h1.1" stroke="#f7f1db" stroke-width=".6" opacity=".2"/><circle cx="171.6" cy="199.7" r="0.91" fill="#26352f" opacity="0.19"/><path d="m170.7 198.8h0.9" stroke="#f7f1db" stroke-width=".6" opacity=".2"/><circle cx="240.6" cy="137.5" r="1.15" fill="#26352f" opacity="0.19"/><path d="m239.5 136.3h1.2" stroke="#f7f1db" stroke-width=".6" opacity=".2"/><circle cx="210.2" cy="141.8" r="0.76" fill="#26352f" opacity="0.12"/><path d="m209.5 141.0h0.8" stroke="#f7f1db" stroke-width=".6" opacity=".2"/><circle cx="206.0" cy="87.9" r="1.54" fill="#26352f" opacity="0.11"/><path d="m204.5 86.4h1.5" stroke="#f7f1db" stroke-width=".6" opacity=".2"/><circle cx="242.7" cy="112.0" r="1.60" fill="#26352f" opacity="0.16"/><path d="m241.1 110.4h1.6" stroke="#f7f1db" stroke-width=".6" opacity=".2"/><circle cx="172.2" cy="147.0" r="1.25" fill="#26352f" opacity="0.15"/><path d="m171.0 145.7h1.2" stroke="#f7f1db" stroke-width=".6" opacity=".2"/><circle cx="138.9" cy="94.9" r="1.09" fill="#26352f" opacity="0.19"/><path d="m137.9 93.8h1.1" stroke="#f7f1db" stroke-width=".6" opacity=".2"/><circle cx="192.8" cy="72.7" r="1.44" fill="#26352f" opacity="0.17"/><path d="m191.4 71.2h1.4" stroke="#f7f1db" stroke-width=".6" opacity=".2"/><circle cx="242.0" cy="92.2" r="1.36" fill="#26352f" opacity="0.09"/><path d="m240.7 90.8h1.4" stroke="#f7f1db" stroke-width=".6" opacity=".2"/><circle cx="198.0" cy="105.9" r="0.76" fill="#26352f" opacity="0.19"/><path d="m197.2 105.1h0.8" stroke="#f7f1db" stroke-width=".6" opacity=".2"/><circle cx="103.4" cy="147.8" r="1.48" fill="#26352f" opacity="0.11"/><path d="m101.9 146.3h1.5" stroke="#f7f1db" stroke-width=".6" opacity=".2"/><circle cx="121.4" cy="207.9" r="0.99" fill="#26352f" opacity="0.17"/><path d="m120.4 207.0h1.0" stroke="#f7f1db" stroke-width=".6" opacity=".2"/><circle cx="90.5" cy="120.9" r="0.70" fill="#26352f" opacity="0.16"/><path d="m89.8 120.2h0.7" stroke="#f7f1db" stroke-width=".6" opacity=".2"/><circle cx="99.3" cy="220.4" r="0.53" fill="#26352f" opacity="0.17"/><path d="m98.8 219.8h0.5" stroke="#f7f1db" stroke-width=".6" opacity=".2"/><circle cx="88.7" cy="103.0" r="1.44" fill="#26352f" opacity="0.10"/><path d="m87.2 101.5h1.4" stroke="#f7f1db" stroke-width=".6" opacity=".2"/><circle cx="116.8" cy="176.2" r="0.94" fill="#26352f" opacity="0.09"/><path d="m115.8 175.2h0.9" stroke="#f7f1db" stroke-width=".6" opacity=".2"/><circle cx="256.3" cy="85.4" r="0.54" fill="#26352f" opacity="0.12"/><path d="m255.7 84.9h0.5" stroke="#f7f1db" stroke-width=".6" opacity=".2"/><circle cx="191.4" cy="184.7" r="0.63" fill="#26352f" opacity="0.12"/><path d="m190.8 184.1h0.6" stroke="#f7f1db" stroke-width=".6" opacity=".2"/><circle cx="90.3" cy="135.4" r="1.38" fill="#26352f" opacity="0.17"/><path d="m88.9 134.0h1.4" stroke="#f7f1db" stroke-width=".6" opacity=".2"/><circle cx="241.0" cy="187.0" r="1.49" fill="#26352f" opacity="0.16"/><path d="m239.6 185.5h1.5" stroke="#f7f1db" stroke-width=".6" opacity=".2"/><circle cx="166.8" cy="97.9" r="1.26" fill="#26352f" opacity="0.12"/><path d="m165.5 96.6h1.3" stroke="#f7f1db" stroke-width=".6" opacity=".2"/><circle cx="102.7" cy="135.2" r="1.51" fill="#26352f" opacity="0.10"/><path d="m101.1 133.7h1.5" stroke="#f7f1db" stroke-width=".6" opacity=".2"/><circle cx="186.2" cy="126.0" r="1.09" fill="#26352f" opacity="0.10"/><path d="m185.1 124.9h1.1" stroke="#f7f1db" stroke-width=".6" opacity=".2"/><circle cx="251.0" cy="103.5" r="1.20" fill="#26352f" opacity="0.13"/><path d="m249.8 102.3h1.2" stroke="#f7f1db" stroke-width=".6" opacity=".2"/><circle cx="88.1" cy="153.7" r="0.66" fill="#26352f" opacity="0.09"/><path d="m87.5 153.1h0.7" stroke="#f7f1db" stroke-width=".6" opacity=".2"/><circle cx="90.8" cy="87.1" r="0.61" fill="#26352f" opacity="0.16"/><path d="m90.2 86.5h0.6" stroke="#f7f1db" stroke-width=".6" opacity=".2"/><circle cx="172.9" cy="225.2" r="1.57" fill="#26352f" opacity="0.20"/><path d="m171.4 223.6h1.6" stroke="#f7f1db" stroke-width=".6" opacity=".2"/><circle cx="125.2" cy="134.7" r="0.79" fill="#26352f" opacity="0.15"/><path d="m124.4 133.9h0.8" stroke="#f7f1db" stroke-width=".6" opacity=".2"/><circle cx="193.0" cy="194.4" r="1.32" fill="#26352f" opacity="0.11"/><path d="m191.7 193.1h1.3" stroke="#f7f1db" stroke-width=".6" opacity=".2"/><circle cx="158.2" cy="148.4" r="0.51" fill="#26352f" opacity="0.08"/><path d="m157.7 147.9h0.5" stroke="#f7f1db" stroke-width=".6" opacity=".2"/><circle cx="155.7" cy="78.7" r="1.33" fill="#26352f" opacity="0.11"/><path d="m154.4 77.3h1.3" stroke="#f7f1db" stroke-width=".6" opacity=".2"/></g><g filter="url(#paint)"><g transform="rotate(-8 170 150)"><path d="M186 95c-63 9-70 91-9 110-38 0-70-24-70-57s31-59 79-53" fill="#f7f1da"/><g fill="#f7f1da"><path d="m204 128 4 10 11 2-9 7 2 11-9-6-9 6 2-11-8-7 11-2z"/><circle cx="209" cy="184" r="4"/><circle cx="167" cy="119" r="3"/></g></g></g><circle cx="110" cy="95" r="3" fill="#e2d8ff" opacity=".7"/><circle cx="167" cy="105" r="3" fill="#e2d8ff" opacity=".7"/><circle cx="224" cy="85" r="3" fill="#e2d8ff" opacity=".7"/></svg>
