<svg xmlns="http://www.w3.org/2000/svg" viewBox="0 0 340 280"><defs><radialGradient id="s" cx="32%" cy="22%" r="83%"><stop stop-color="#d7e2c7"/><stop offset=".46" stop-color="#9fb599"/><stop offset=".86" stop-color="#567361"/><stop offset="1" stop-color="#343e3d"/></radialGradient><filter id="shadow" x="-30%" y="-30%" width="160%" height="180%"><feGaussianBlur stdDeviation="8"/></filter><filter id="grain"><feTurbulence type="fractalNoise" baseFrequency=".42" numOctaves="3" stitchTiles="stitch"/><feColorMatrix type="saturate" values="0"/><feComponentTransfer><feFuncA type="linear" slope=".23"/></feComponentTransfer><feComposite in2="SourceGraphic" operator="in"/><feBlend in="SourceGraphic" mode="soft-light"/></filter><linearGradient id="bevel" x1=".2" y1="0" x2=".8" y2="1"><stop stop-color="#fff" stop-opacity=".22"/><stop offset=".38" stop-color="#fff" stop-opacity="0"/><stop offset=".74" stop-color="#13232b" stop-opacity=".02"/><stop offset="1" stop-color="#13232b" stop-opacity=".4"/></linearGradient><filter id="paint" x="-20%" y="-20%" width="140%" height="140%"><feDropShadow dx="0" dy="1" stdDeviation=".8" flood-color="#17252c" flood-opacity=".35"/></filter></defs><ellipse cx="171" cy="236" rx="90" ry="13" opacity=".32" fill="#0b171b" filter="url(#shadow)"/><path d="M79 176C66 133 87 79 127 62c40-19 84-9 114 19 30 30 39 76 21 111-20 36-63 50-107 38-42-12-66-26-76-54Z" fill="url(#s)" stroke="#243031" stroke-opacity=".35" stroke-width="2" filter="url(#grain)"/><path d="M79 176C66 133 87 79 127 62c40-19 84-9 114 19 30 30 39 76 21 111-20 36-63 50-107 38-42-12-66-26-76-54Z" fill="url(#bevel)"/><path d="M91 119c13-31 37-48 70-50" fill="none" stroke="#d7e2c7" stroke-width="2.5" stroke-linecap="round" opacity=".34"/><g filter="url(#paint)"><path d="M170 170v35q16 0 24-10" fill="none" stroke="#42694c" stroke-width="7" stroke-linecap="round"/><path d="M169 161c-47 1-62-29-39-45 18-13 31 5 39 24-5-43 19-58 35-37 12 16-2 36-24 48 38-17 62 1 46 23-12 18-36 7-51-3 12 36-9 56-28 39-15-14-5-35 22-49z" fill="#c2dfa3" stroke="#58825b" stroke-width="4"/></g></svg>
