<svg xmlns="http://www.w3.org/2000/svg" viewBox="0 0 340 280"><defs><radialGradient id="s" cx="32%" cy="22%" r="83%"><stop stop-color="#ece0a0"/><stop offset=".46" stop-color="#bfb16c"/><stop offset=".86" stop-color="#766e43"/><stop offset="1" stop-color="#343e3d"/></radialGradient><filter id="shadow" x="-30%" y="-30%" width="160%" height="180%"><feGaussianBlur stdDeviation="8"/></filter><filter id="grain"><feTurbulence type="fractalNoise" baseFrequency=".42" numOctaves="3" stitchTiles="stitch"/><feColorMatrix type="saturate" values="0"/><feComponentTransfer><feFuncA type="linear" slope=".23"/></feComponentTransfer><feComposite in2="SourceGraphic" operator="in"/><feBlend in="SourceGraphic" mode="soft-light"/></filter><linearGradient id="bevel" x1=".2" y1="0" x2=".8" y2="1"><stop stop-color="#fff" stop-opacity=".22"/><stop offset=".38" stop-color="#fff" stop-opacity="0"/><stop offset=".74" stop-color="#13232b" stop-opacity=".02"/><stop offset="1" stop-color="#13232b" stop-opacity=".4"/></linearGradient><filter id="paint" x="-20%" y="-20%" width="140%" height="140%"><feDropShadow dx="0" dy="1" stdDeviation=".8" flood-color="#17252c" flood-opacity=".35"/></filter></defs><ellipse cx="171" cy="236" rx="90" ry="13" opacity=".32" fill="#0b171b" filter="url(#shadow)"/><path d="M78 171C65 132 81 82 119 62c37-19 86-11 115 21 29 31 36 79 17 115-19 34-55 43-94 36-42-7-67-25-79-63Z" fill="url(#s)" stroke="#243031" stroke-opacity=".35" stroke-width="2" filter="url(#grain)"/><path d="M78 171C65 132 81 82 119 62c37-19 86-11 115 21 29 31 36 79 17 115-19 34-55 43-94 36-42-7-67-25-79-63Z" fill="url(#bevel)"/><path d="M91 119c13-31 37-48 70-50" fill="none" stroke="#ece0a0" stroke-width="2.5" stroke-linecap="round" opacity=".34"/><g filter="url(#paint)"><g stroke="#7a5d24" stroke-width="6" stroke-linecap="round"><path d="M170 102v-16m0 102v16m-51-51h-16m118 0h16m-103-36-11-11m72 83 11 11m-72-11-11 11m72-83 11-11"/><circle cx="170" cy="153" r="33" fill="#fbd266"/></g><path d="M156 154q4-6 8 0m13 0q4-6 8 0m-26 13q12 12 23 0" stroke="#7a5d24" stroke-width="3" fill="none" stroke-linecap="round"/></g></svg>
