<svg xmlns="http://www.w3.org/2000/svg" viewBox="0 0 340 280"><defs><radialGradient id="s" cx="35%" cy="23%" r="80%"><stop stop-color="#e2e3ff"/><stop offset=".55" stop-color="#b9bfdc"/><stop offset="1" stop-color="#6873a2"/></radialGradient><filter id="shadow" x="-30%" y="-30%" width="160%" height="180%"><feGaussianBlur stdDeviation="8"/></filter><filter id="grain"><feTurbulence type="fractalNoise" baseFrequency=".7" numOctaves="3" stitchTiles="stitch"/><feColorMatrix type="saturate" values="0"/><feComponentTransfer><feFuncA type="linear" slope=".13"/></feComponentTransfer><feComposite in2="SourceGraphic" operator="in"/><feBlend in="SourceGraphic" mode="soft-light"/></filter></defs><ellipse cx="171" cy="236" rx="90" ry="13" opacity=".17" fill="#37312d" filter="url(#shadow)"/><path d="M79 170C67 120 86 75 130 58c44-16 89 0 119 44 28 39 20 91-12 116-31 24-88 22-121 7-23-11-32-29-37-55Z" fill="url(#s)" filter="url(#grain)"/><path d="M94 118c13-32 39-47 69-47" fill="none" stroke="#e2e3ff" stroke-width="5" stroke-linecap="round" opacity=".5"/><path d="M186 95c-63 9-70 91-9 110-38 0-70-24-70-57s31-59 79-53" fill="#f7f1da"/><g fill="#f7f1da"><path d="m204 128 4 10 11 2-9 7 2 11-9-6-9 6 2-11-8-7 11-2z"/><circle cx="209" cy="184" r="4"/><circle cx="167" cy="119" r="3"/></g></svg>